<?xml version="1.0" encoding="UTF-8"?>
<svg id="Layer_10" data-name="Layer 10" xmlns="http://www.w3.org/2000/svg" viewBox="0 0 274 247.33">
  <defs>
    <style>
      .cls-1, .cls-2, .cls-3 {
        fill: #f3f3f3;
      }

      .cls-1, .cls-3 {
        stroke-width: 0px;
      }

      .cls-2 {
        font-family: Parisienne-Regular, Parisienne;
        font-size: 19.83px;
        letter-spacing: .1em;
      }

      .cls-3 {
        fill-rule: evenodd;
      }
    </style>
  </defs>
  <path class="cls-1" d="M266.26,89.33c-.21-.14-.49-.14-.62.15-.76,1.74-1.42,3.55-2.33,5.22-.9,1.5-2.05,2.86-3.38,4-1.3,1.16-2.54,2.39-3.69,3.69-.87,1.04-1.46,2.27-1.76,3.59-.77-5.08-1.87-10.07-3.27-14.94,1.24-1.3,2.17-2.87,2.69-4.59.11-.54.16-1.09.16-1.65,0-1.24-.29-2.46-.82-3.58-.04-.31-.36-.6-.67-.37l-.06.03c-.67.44-1.21,1.03-1.59,1.74-.27.55-.4,1.15-.4,1.76,0,.2.02.4.04.6.08.94.29,1.89.28,2.83-.05.41-.14.82-.23,1.22-.86-2.78-1.81-5.51-2.86-8.21.03-.11.03-.22-.03-.35v-.03c-.22-.5-.48-.98-.72-1.47-.74-1.81-1.54-3.6-2.37-5.37.13-.04.25-.13.31-.29,1.07-2.46,1.73-5.08,1.94-7.75.02-.37.03-.75.03-1.12,0-2.95-.58-5.88-1.69-8.61-.7-1.62-1.62-3.14-2.72-4.53-.02-.06-.06-.11-.11-.15,0,0,0,0,0,0,0,0,0,0,0,0,0,0,0,0-.01,0-.19-.22-.45-.16-.61,0-.08.05-.16.12-.21.22-.99,2.58-1.5,5.32-1.5,8.08,0,.86.05,1.73.15,2.58.11,1.45.34,2.89.7,4.3-1.54-2.76-3.18-5.46-4.94-8.08.29-1.1.45-2.23.45-3.37,0-.46-.03-.93-.07-1.38-.22-2.12-.91-4.16-1.99-5.99-.09-.14-.24-.22-.4-.22-.01,0-.03,0-.04,0,0,0-.01,0-.02,0-.02,0-.04.02-.06.02-.03,0-.06.02-.09.03-.15.05-.28.15-.32.31-.25,1.01-.38,2.05-.38,3.1,0,.68.06,1.37.16,2.04.08.68.22,1.34.38,2-.88-1.22-1.77-2.42-2.69-3.6-1.4-1.79-2.86-3.53-4.36-5.24,0-.03,0-.05,0-.08l-1.14-3.59c-.4-1.14-.63-2.34-.7-3.55-.05-2.31.64-4.65.95-6.93.16-.69.24-1.41.24-2.12,0-1.18-.23-2.35-.66-3.45-.84-1.75-2.15-3.23-3.78-4.27-.16-.1-.31-.08-.44,0-.09.04-.18.09-.23.18-1.69,2.92-2.59,6.24-2.59,9.62v.2c.11,2.53.78,4.99,1.93,7.22-4.33-4.22-8.99-8.13-13.96-11.66-.2-.73-.45-1.46-.73-2.16-.39-.82-.87-1.61-1.44-2.32-1.26-1.69-2.87-3.1-4.72-4.11-.07-.04-.14-.06-.2-.06-.03,0-.05-.03-.08-.03-.27,0-.49.22-.49.49,0,.04,0,.09.02.13.5,1.69,1.34,3.26,2.48,4.61-6.37-4.04-13.16-7.51-20.34-10.3.14-.1.22-.26.15-.47-.33-.93-.73-1.84-1.18-2.72-.49-.86-1.1-1.64-1.81-2.31-1.64-1.68-3.89-2.63-6.23-2.63h-.03c-.12,0-.21.04-.28.11-.01,0-.03.02-.04.03,0,0-.01.01-.02.02-.12.1-.18.25-.13.44.75,2.14,2.25,4.14,4.13,5.58-2.31-.77-4.66-1.47-7.03-2.1-2.27-.84-4.67-1.29-7.1-1.29-.54,0-1.08.02-1.62.06-3.78.43-6.61,2.66-9.45,4.99-.19.15-.19.35-.11.5.01.03.04.05.05.08.01.02.02.03.04.05.01.01.02.03.03.04,2.53,2.21,6.1,1.89,9.06.8,3.53-1.34,6.91-3.78,10.86-3.36.24.03.38-.11.43-.29,1.72.5,3.43,1.03,5.12,1.6-.99.08-1.97.26-2.93.56-2.02.64-3.89,1.71-5.46,3.13-.16.15-.18.33-.11.48.05.19.19.36.43.38.19,0,.39.01.58.01,1.57,0,3.14-.29,4.61-.84,1.82-.62,3.54-1.53,5.07-2.69.07-.05.11-.11.13-.17,0,0,.02-.01.02-.02,4.28,1.56,8.45,3.34,12.46,5.35-3.62-.43-7.2-.5-10.62,1.19-3.52,1.88-6.5,4.64-8.65,8-.13.19-.09.37.01.49.06.3.36.54.66.31h.04c3.47-2.68,8.07-2.38,12.18-3.07,3.49-.59,7.24-2.27,8.5-5.83,2.12,1.12,4.2,2.29,6.24,3.52-.57-.09-1.15-.15-1.73-.15-.21,0-.43,0-.64.02-1.79.25-3.45,1.08-4.72,2.36-.02.03-.02.06-.03.09-.13.16-.15.39.07.55v.02c.62.49,1.36.82,2.15.94.18.03.37.04.55.04.61,0,1.21-.14,1.76-.42.89-.37,1.74-.9,2.66-1.19.74-.16,1.5-.24,2.26-.24.29,0,.59.01.88.04.02,0,.03,0,.05-.01,4.89,3.2,9.49,6.76,13.81,10.61-.4-.19-.8-.4-1.21-.57-1.55-.61-3.18-1.03-4.84-1.25-1.37-.22-2.76-.33-4.15-.33-2.97,0-5.92.51-8.72,1.49-.03,0-.04.03-.07.04-.19.07-.32.24-.32.45,0,.17.09.33.24.41,2.93,1.66,6.19,2.67,9.54,2.97,1.3.16,2.62.25,3.94.25,2.6,0,5.2-.32,7.71-.97.1-.03.19-.09.25-.17.04.01.08.03.13.03.02,0,.03,0,.04,0,1.65,1.57,3.26,3.18,4.82,4.83.78.99,1.59,1.95,2.47,2.86.08.08.16.12.25.13,1.5,1.71,2.97,3.45,4.37,5.25.3.39.58.79.88,1.18-.75-.49-1.56-.9-2.42-1.2-.66-.16-1.33-.25-2.01-.25-1.05,0-2.09.21-3.07.6-.03,0-.05-.02-.08-.02-.23,0-.41.17-.46.39,0,0,0,.01,0,.02,0,.02-.01.04-.01.07,0,.02.01.03.01.05,0,.04.02.07.03.11,0,.02,0,.05.02.08l.02.07c.41.68.98,1.26,1.66,1.67.61.33,1.29.5,1.98.5.15,0,.3,0,.45-.02.74-.08,1.49-.12,2.24-.12.23,0,.46,0,.68.01.98.19,1.94.51,2.84.94.1.04.19.03.27,0,.53.75,1.04,1.51,1.55,2.26.04.1.08.2.13.29.04.09.11.14.17.18.03.06.08.11.13.15,3.09,4.63,5.85,9.48,8.26,14.52-.57-.74-1.17-1.46-1.8-2.15-2.35-2.43-5.45-4.01-8.8-4.47-.79-.12-1.6-.18-2.4-.18-1.08,0-2.17.11-3.22.34-.17.04-.27.14-.31.27-.05.09-.08.19-.06.32h.04c.61,2.66,2.25,5.83,4.87,6.99,1.56.61,3.18,1.04,4.84,1.29,1.81.22,3.58.73,5.23,1.5.88.53,1.71,1.15,2.47,1.84l2.59,2.18s0,0,0,0c.87,2.21,1.65,4.46,2.38,6.74-1.21-1.52-2.85-2.64-4.73-3.16-.04-.01-.08-.02-.12-.02-.09,0-.18.03-.25.08-.17.05-.3.19-.27.43.54,4.11,3.17,7.66,6.95,9.35.03.01.05,0,.08.01.09.06.2.08.31.05,1.09,4.25,1.93,8.59,2.54,12.99-1.08-2.46-2.57-4.74-4.44-6.68-1.23-1.24-2.62-2.32-4.13-3.19-.08-.06-.17-.09-.27-.09-.26,0-.47.21-.47.47.01,3.73.95,7.4,2.73,10.68,1.69,3.47,4.17,6.5,7.24,8.84.08.06.16.08.24.08.02.04.04.07.07.11.1,1.94.16,3.89.16,5.85,0,32.32-13.13,61.59-34.35,82.77-21.22,21.18-50.54,34.28-82.93,34.28s-61.7-13.1-82.92-34.28c-19.87-19.84-32.64-46.77-34.19-76.66.15-.13.23-.34.09-.55-.04-.06-.08-.13-.12-.19-.08-1.78-.13-3.57-.13-5.37,0-.22.01-.44.01-.66.14-.04.26-.14.31-.3.09,0,.19-.03.28-.1h0c2.94-2.48,5.27-5.63,6.78-9.17,1.45-3.05,2.21-6.39,2.21-9.77,0-.31,0-.63-.02-.94,0-.24-.15-.39-.34-.43-.12-.06-.26-.07-.4.03h.03s-.05.04-.07.05c0,0-.02.01-.02.02-2.6,1.69-4.78,3.96-6.35,6.63-.78,1.28-1.42,2.64-1.91,4.05.42-4.59,1.1-9.12,2.04-13.57.11.01.22-.01.32-.07.09.01.18.01.28-.03h-.03c1.82-.9,3.37-2.29,4.45-4.01,1.13-1.67,1.82-3.6,1.99-5.6.02-.2-.08-.33-.21-.39-.1-.1-.24-.16-.42-.12v.06c-1.97.63-3.65,1.93-4.8,3.66.65-2.39,1.37-4.76,2.16-7.09.02-.01.04-.02.05-.03,1.35-1.37,2.79-2.68,4.29-3.89,1.52-.97,3.21-1.64,4.99-1.95,1.73-.36,3.44-.87,5.09-1.5,1.26-.58,2.31-1.52,3.04-2.69.95-1.43,1.59-3.04,1.89-4.72,0,0,0-.01,0-.02.07-.24,0-.51-.31-.58-.84-.13-1.69-.2-2.55-.2-2.5,0-4.97.58-7.21,1.69-2.54,1.25-4.5,3.31-6.11,5.61,2.66-6.19,5.84-12.12,9.5-17.73.06,0,.13-.01.2-.04.87-.48,1.8-.84,2.76-1.08.48-.03.97-.05,1.46-.05s.97.02,1.45.05c.07,0,.15,0,.22,0,.72,0,1.44-.19,2.07-.54.65-.41,1.18-.98,1.56-1.65.02-.02.04-.04.05-.07.01-.02.03-.04.04-.06.11-.21.05-.41-.08-.55-.05-.06-.11-.12-.2-.16-.92-.35-1.89-.52-2.88-.52-.86,0-1.71.14-2.53.4-.7.29-1.36.67-1.98,1.09.58-.83,1.15-1.66,1.75-2.47,3.14-4.26,6.59-8.3,10.28-12.1.05.04.11.07.19.09v-.03c2.04.41,4.12.62,6.2.62,1.77,0,3.54-.15,5.29-.45,3.36-.42,6.6-1.58,9.47-3.37.44-.05.56-.77.06-.96l-.05.04s-.06-.01-.09-.02c-2.43-.72-4.95-1.1-7.49-1.1-1.79,0-3.59.19-5.34.55-1.63.31-3.21.8-4.72,1.46-.25.12-.49.26-.73.39,4.14-3.99,8.57-7.69,13.29-11.05.33-.03.67-.07,1-.07.51,0,1.03.04,1.53.11.94.3,1.87.66,2.76,1.07.52.24,1.09.36,1.67.36.21,0,.43-.02.64-.05.67-.13,1.3-.41,1.85-.81.26-.01.48-.25.48-.5.05-.26-.18-.52-.46-.54-1.27-1.05-2.82-1.73-4.47-1.9-.06,0-.12,0-.17,0-.54,0-1.07.05-1.6.12,1.81-1.2,3.66-2.34,5.55-3.44,1.52,3.22,5.1,4.65,8.48,5.07,4.17.54,8.81,0,12.43,2.5.28.19.53.03.63-.22.2-.12.31-.36.13-.6-2.28-3.24-5.36-5.84-8.93-7.56-1.83-.82-3.82-1.25-5.83-1.25h-.07c-1.3.04-2.59.16-3.88.34,3.71-2.03,7.55-3.85,11.51-5.48,1.56,1.05,3.28,1.86,5.09,2.36,1.26.41,2.59.62,3.92.62.38,0,.77-.02,1.15-.06.36.03.69-.35.49-.65-.03-.14-.12-.24-.27-.28-1.6-1.27-3.45-2.2-5.43-2.71-.7-.2-1.42-.33-2.14-.4,1.53-.59,3.08-1.14,4.64-1.66.03,0,.06.01.1,0v-.03c3.9-.62,7.43,1.75,11,2.88,2.96.94,6.52,1.06,8.91-1.24.24-.23.16-.51-.04-.68-.02-.02-.03-.05-.06-.07h0c-2.91-2.18-5.93-4.26-9.68-4.49-.16,0-.32,0-.48,0-3.49,0-6.93.88-9.98,2.57-.1.05-.15.12-.19.2-2.06.69-4.1,1.42-6.1,2.22.69-.43,1.35-.93,1.93-1.52,1.43-1.36,2.49-3.06,3.1-4.93.08-.09.14-.2.14-.33,0-.21-.14-.38-.33-.44-.06-.03-.13-.04-.2-.04-.03,0-.04.02-.07.02-2.32.12-4.5,1.15-6.04,2.88-.68.7-1.25,1.49-1.69,2.35-.43.91-.79,1.86-1.08,2.83-.13.38.23.61.55.56.08.03.16.05.25.04l.03-.05c.12-.02.23-.07.35-.1-4.19,1.81-8.25,3.85-12.15,6.1-.03,0-.07.01-.1.02-.09.02-.16.06-.21.11-.05.03-.1.08-.13.13-2.81,1.63-5.53,3.37-8.18,5.22-.18.08-.35.18-.53.26.13-.17.26-.33.38-.5,1.06-1.36,1.83-2.93,2.26-4.6.27-.36-.18-.98-.6-.69h-.03s-.01.01-.02.02c-.03.02-.06.04-.09.06-1.75,1.09-3.26,2.53-4.42,4.24-.52.74-.96,1.54-1.3,2.37-.28.73-.51,1.5-.66,2.27-.02.09,0,.17.01.24-4.97,3.88-9.6,8.13-13.86,12.72.43-.85.83-1.72,1.18-2.61.54-1.65.82-3.37.82-5.11,0-1.56-.23-3.13-.67-4.62-.49-1.85-1.28-3.61-2.31-5.23-.08-.28-.37-.5-.66-.29h-.04c-1.56,1.09-2.8,2.59-3.58,4.33-.37,1.01-.57,2.08-.57,3.16,0,.82.11,1.64.33,2.43.43,2.3,1.27,4.63,1.32,6.98,0,1.21-.18,2.41-.52,3.57l-.94,3.63s-.02.09-.02.13c0,.05.01.1.03.14-1.01,1.26-2,2.54-2.96,3.84-1.34,1.82-2.61,3.69-3.84,5.58.16-.73.28-1.48.35-2.22.07-.53.1-1.07.1-1.61,0-1.18-.18-2.35-.5-3.49.04-.38-.45-.67-.75-.44-.14.07-.23.19-.24.35-.94,1.82-1.5,3.82-1.62,5.86-.01.25-.02.51-.02.77,0,1.37.22,2.73.63,4.04-1.68,2.77-3.25,5.61-4.7,8.51.34-1.57.54-3.16.57-4.77.03-.46.04-.93.04-1.4,0-3.09-.65-6.14-1.88-8.97-.01-.08-.05-.16-.11-.22-.1-.15-.26-.19-.41-.16-.14,0-.27.06-.38.19h0c-1.95,2.71-3.19,5.87-3.61,9.18-.16,1.04-.24,2.11-.24,3.16,0,1.93.27,3.86.79,5.72.47,1.45,1.04,2.89,1.68,4.27.05.11.13.18.21.21-.82,1.95-1.57,3.93-2.28,5.93-.14.32-.3.63-.44.95-.05.11-.04.22-.02.32-.92,2.69-1.75,5.42-2.47,8.19-.06-.23-.14-.46-.19-.69-.01-.27-.02-.55-.02-.82,0-.73.05-1.47.14-2.2.02-.16.03-.32.03-.48,0-.66-.15-1.31-.44-1.89-.41-.71-.99-1.31-1.7-1.73-.06-.03-.13-.04-.19-.04,0,0,0,0,0,0-.19-.07-.4-.03-.51.21-.48,1.07-.74,2.23-.74,3.41,0,.66.08,1.32.23,1.96.57,1.68,1.56,3.19,2.84,4.42-1.18,4.84-2.05,9.79-2.61,14.81-.35-.96-.81-1.87-1.43-2.7-1.16-1.26-2.43-2.44-3.78-3.5-1.38-1.05-2.63-2.29-3.69-3.67-1.12-1.82-2.11-3.71-2.96-5.67-.15-.31-.47-.29-.67-.12-.18.05-.31.19-.29.43h0c.23,3.62.99,7.18,2.25,10.57,1.25,3.04,3.28,5.7,5.89,7.71,1.28,1.02,2.7,1.85,4.21,2.48-.16,2.49-.27,5-.27,7.52,0,1.21.02,2.42.06,3.63-.1-.2-.21-.4-.3-.61-.22-.96-.37-1.95-.43-2.94-.06-.82-.36-1.61-.85-2.28-.54-.64-1.24-1.12-2.02-1.4-.19-.07-.34,0-.44.11-.06.05-.11.12-.14.22-.15.63-.22,1.27-.22,1.91,0,1.21.26,2.4.77,3.5.9,1.58,2.19,2.9,3.72,3.88,1.52,30.19,14.4,57.39,34.47,77.42,21.39,21.35,50.94,34.56,83.58,34.56s62.2-13.21,83.6-34.56c21.16-21.12,34.33-50.21,34.61-82.37,1.57-1.06,2.87-2.5,3.74-4.2.41-1,.62-2.06.62-3.14,0-.77-.11-1.53-.32-2.27-.06-.21-.25-.36-.47-.36-.14,0-.26.06-.35.15-.69.32-1.3.81-1.76,1.43-.46.71-.71,1.53-.73,2.37-.01.95-.1,1.9-.26,2.84-.14.38-.3.75-.48,1.12-.02-2.32-.12-4.62-.27-6.91-.02-.52-.05-1.04-.1-1.55-.08-1.03-.2-2.06-.31-3.09,2.87-1.34,5.36-3.37,7.23-5.92,1.97-2.77,3.24-5.98,3.69-9.34.33-2.02.53-4.06.6-6.1,0-.27-.19-.42-.41-.44ZM219.56,27.81c.36-1.65.96-3.24,1.77-4.73,1.44,1.01,2.58,2.4,3.25,4.03.72,1.89.25,4.01-.08,5.92-.36,2.11-.94,4.32-.73,6.47.26,1.54.63,3.07,1.1,4.57-.4-.43-.81-.85-1.21-1.28-1.35-1.76-2.53-3.65-3.46-5.66-.72-1.8-1.09-3.73-1.09-5.66,0-1.23.15-2.47.45-3.66ZM203.23,23.65c.5.65.94,1.36,1.3,2.11.11.25.2.52.29.78-1.13-.87-2.16-1.87-3.03-3-.78-.93-1.42-1.97-1.89-3.08,1.28.87,2.42,1.95,3.34,3.2ZM172.28,6.61c1.87.18,3.62,1.03,4.92,2.42,1.03,1.1,1.82,2.39,2.37,3.79-1.66-.36-3.2-1.14-4.44-2.31-1.23-1.07-2.19-2.4-2.85-3.89ZM151.11,13.82c2.52-2.06,5.2-4.04,8.53-4.36.48-.03.96-.05,1.44-.05,1.82,0,3.62.28,5.36.77v.03c.43.11.85.24,1.28.36.07.03.14.06.21.09-2.84.3-5.45,1.79-8.06,2.93-2.68,1.19-6.19,2.06-8.77.24ZM172.18,15.75c-1.1.41-2.26.65-3.43.73,1.27-.94,2.7-1.67,4.22-2.13.77-.25,1.56-.42,2.36-.5.28-.02.56-.02.83-.03-1.24.82-2.58,1.48-3.99,1.94ZM182.43,25.26c-3.19.41-6.61.52-9.52,1.95,1.9-2.46,4.3-4.52,7.04-6.02,3.6-1.85,7.53-1.53,11.42-1.02-1.42,3.46-5.53,4.65-8.94,5.08ZM196.67,25.84c-.7.44-1.49.72-2.31.82-.59-.01-1.17-.18-1.69-.47,1.05-.89,2.31-1.49,3.68-1.69.18,0,.36-.01.54-.01.91,0,1.82.14,2.69.38-.14.01-.28,0-.42.02-.87.2-1.71.52-2.49.94ZM206.39,38.61c-2.88-.23-5.68-1.04-8.26-2.33,2.39-.73,4.88-1.13,7.38-1.13,1.37,0,2.73.11,4.08.33,1.54.22,3.06.61,4.52,1.16.97.42,1.92.91,2.85,1.43-2.21.5-4.47.78-6.74.78-1.28,0-2.56-.08-3.82-.24ZM229.34,53.85c-.44,0-.89.03-1.33.09-.33.06-.66.08-.99.08-.48,0-.97-.06-1.44-.18-.53-.22-.99-.57-1.36-1.01.75-.26,1.54-.39,2.33-.39.65,0,1.3.09,1.93.26.88.33,1.7.78,2.46,1.33-.09-.03-.18-.06-.27-.09-.44-.06-.88-.09-1.33-.09ZM242.2,52.52c2.23,3.12,3.52,6.82,3.68,10.66.04.48.06.97.06,1.45,0,1.25-.13,2.51-.38,3.74-.32,1.3-.75,2.57-1.23,3.82-1.82-3.16-2.91-6.7-3.17-10.34-.08-.79-.13-1.58-.13-2.38,0-2.37.41-4.71,1.17-6.95ZM235.45,54.84c0,.68-.08,1.36-.19,2.04-.54-1.33-.91-2.72-1.08-4.15-.11-.64-.16-1.3-.16-1.95,0-.53.04-1.05.11-1.57.67,1.41,1.11,2.93,1.27,4.49.03.38.05.77.05,1.15ZM101.6,17.56c-1.17-.03-2.34-.22-3.46-.58-1.36-.38-2.66-.93-3.88-1.64.04,0,.09,0,.13,0,.99,0,1.98.12,2.94.35,1.52.38,2.96,1.02,4.27,1.88ZM110.49,10.09c3.33.2,6.07,2.04,8.66,3.96-2.5,1.95-6,1.28-8.77.24-2.52-.97-5.02-2.22-7.68-2.51l-.08-.25c2.34-.94,4.84-1.43,7.37-1.43.16,0,.33,0,.49,0ZM92.87,10.54c1.22-1.43,2.92-2.37,4.77-2.64-.58,1.53-1.48,2.92-2.67,4.05-1.18,1.21-2.66,2.05-4.29,2.49.48-1.42,1.22-2.75,2.19-3.89ZM90.76,22.81c2.82,1.38,5.31,3.35,7.32,5.74-2.99-1.34-6.44-1.29-9.65-1.55-3.42-.27-7.6-1.28-9.21-4.67,3.88-.72,7.82-1.24,11.54.47ZM57.38,39.89c1.42-.63,2.93-1.1,4.46-1.39,1.73-.37,3.51-.56,5.29-.56,2.07,0,4.14.27,6.15.77-2.52,1.42-5.29,2.37-8.16,2.75-1.72.3-3.47.46-5.22.46s-3.55-.17-5.3-.48c.9-.56,1.83-1.09,2.78-1.56ZM74.41,26.95c1.38.13,2.68.67,3.78,1.51-.48.29-1.02.47-1.58.52-.81-.06-1.6-.29-2.31-.68-.8-.39-1.65-.68-2.52-.85-.13-.01-.26,0-.39-.02.98-.31,1.99-.48,3.02-.48ZM67.6,26.4c.84-1.27,1.89-2.38,3.1-3.3-.41,1.12-.99,2.17-1.72,3.11-.79,1.13-1.73,2.15-2.79,3.05.07-.22.13-.44.21-.66.32-.77.72-1.51,1.2-2.2ZM46.78,36.65c-.41-1.89-.94-3.89-.36-5.76.58-1.67,1.65-3.13,3.04-4.22,1.58,2.62,2.49,5.6,2.62,8.66,0,.01,0,.03,0,.05,0,3.3-.99,6.53-2.83,9.26-.71,1.13-1.5,2.21-2.32,3.27.42-1.58.74-3.2.92-4.82-.08-2.17-.44-4.34-1.06-6.42ZM28.99,103.65s0,.04,0,.05c0,3.28-.74,6.52-2.16,9.47-1.4,3.24-3.52,6.12-6.16,8.45-.02-.52-.06-1.04-.06-1.56,0-.85.04-1.71.1-2.56.26-1.86.79-3.69,1.56-5.41,1.4-3.4,3.75-6.31,6.73-8.44ZM28.85,90.57c-.52,3.25-2.46,6.09-5.3,7.75.07-.62.17-1.24.31-1.85.02-.09.06-.17.09-.25.1-.09.16-.21.13-.37.24-.69.54-1.36.94-1.97.89-1.49,2.24-2.62,3.83-3.31ZM31.96,76.46c1.01-1.23,2.23-2.28,3.59-3.1,1.39-.8,2.91-1.37,4.48-1.69,1.02-.23,2.07-.34,3.12-.34.61,0,1.22.05,1.83.13-.59,2.61-2.05,5.39-4.6,6.38-3.16,1.23-6.88,1.29-9.71,3.27-1.14.88-2.22,1.84-3.27,2.82,1.21-2.67,2.73-5.19,4.56-7.47ZM43.68,56.6c.73-.24,1.5-.36,2.27-.36.69,0,1.36.13,2.02.32-.35.47-.82.85-1.36,1.09-.55.16-1.11.24-1.68.24-.25,0-.51-.02-.76-.05-.25-.02-.5-.03-.74-.03-.62,0-1.23.06-1.84.18-.13.04-.26.1-.39.15.75-.62,1.58-1.14,2.47-1.54ZM36.9,57.96c.07-1.54.41-3.05.98-4.47.11.66.18,1.34.18,2.01,0,.47-.03.94-.08,1.41-.1,1.39-.39,2.77-.84,4.09-.16-.8-.26-1.62-.26-2.44,0-.2,0-.4.02-.59ZM27.38,73c-.37-1.51-.56-3.07-.56-4.63,0-.16,0-.32,0-.47,0-.03,0-.06,0-.09,0-3.83,1.12-7.58,3.17-10.79,1,2.52,1.54,5.2,1.54,7.91,0,.46-.02.92-.04,1.38-.08,3.67-1.01,7.27-2.69,10.52-.55-1.25-1.04-2.53-1.42-3.84ZM20.87,91.31c-.16-.61-.24-1.23-.24-1.86,0-.83.15-1.65.43-2.43.45.36.8.83,1.04,1.36.12.47.19.96.19,1.45,0,.35-.03.69-.09,1.03-.06.42-.09.86-.09,1.28s.03.86.08,1.28c.05.19.12.38.18.57-.62-.82-1.14-1.72-1.49-2.7ZM11.52,107.87c-1.74-3-2.51-6.51-2.96-9.97.67,1.32,1.41,2.62,2.23,3.85,1.38,1.61,2.93,3.07,4.62,4.37,1.44,1.26,2.94,2.52,3.65,4.36.48,1.24.73,2.57.74,3.9-.02.26-.03.53-.05.79-3.43-1.51-6.32-4.05-8.22-7.29ZM16.75,125.49c-.46-.98-.7-2.04-.7-3.12,0-.37.04-.74.1-1.11.5.28.93.67,1.25,1.15.35.77.54,1.61.55,2.46.04.87.2,1.72.49,2.54.06.13.14.26.2.39-.73-.68-1.37-1.44-1.89-2.3ZM251.64,83.42c.19-.53.52-1.01.93-1.39.35.87.55,1.79.55,2.73,0,.53-.06,1.05-.17,1.57-.3.94-.75,1.83-1.3,2.65.04-.16.09-.33.13-.49.02-.28.03-.56.03-.84,0-.61-.06-1.23-.17-1.83-.09-.39-.13-.8-.13-1.2s.04-.81.13-1.2ZM243.36,77.03c-1.35-.95-2.9-1.59-4.53-1.89-1.75-.38-3.51-.65-5.23-1.13-1.41-.34-2.67-1.13-3.58-2.25-.97-1.21-1.67-2.62-2.08-4.11.85-.15,1.71-.24,2.57-.24,2.21,0,4.39.49,6.39,1.42,3.03,1.42,5.27,4.04,7.07,6.8.73,1.14,1.39,2.34,2.03,3.55-.86-.74-1.72-1.48-2.64-2.15ZM246.89,90.2c-.95-1.25-1.59-2.71-1.92-4.24,1.64.62,3.07,1.73,4.03,3.22.53.76.94,1.59,1.23,2.47.16.59.28,1.18.38,1.78-1.48-.75-2.77-1.85-3.72-3.23ZM248,108.36c-1.55-2.88-2.42-6.07-2.57-9.32,3.04,1.97,5.48,4.74,7.04,8.03.86,1.68,1.48,3.49,1.84,5.35.08.55.13,1.11.18,1.67.03.42.05.84.08,1.26.02.42.04.84.05,1.27-2.79-2.22-5.07-5.04-6.62-8.25ZM257.44,119.72h0c0-.1,0-.19,0-.28,0-.74.14-1.48.4-2.18.3-.51.72-.94,1.21-1.26.09.47.16.95.16,1.43,0,.95-.19,1.9-.55,2.78-.47.88-1.06,1.68-1.76,2.39.04-.1.1-.19.14-.29.26-.84.4-1.72.4-2.61ZM255.14,110.09c-.05-.43-.09-.86-.09-1.29,0-1.17.19-2.33.56-3.44.63-1.89,2.1-3.26,3.51-4.61,1.62-1.36,3.1-2.9,4.39-4.57.76-1.3,1.45-2.65,2.06-4.03-.27,3.54-.89,7.16-2.54,10.29-1.77,3.32-4.53,5.98-7.89,7.66Z"/>
  <text class="cls-2" transform="translate(82.39 177.56)"><tspan x="0" y="0">wedding day</tspan></text>
  <path class="cls-1" d="M110.14,140.86c-.15.24-.53.3-1.12.16s-1.29-.21-2.09-.21-1.92.16-3.37.48-3.74.83-6.85,1.51-5.96,1.03-8.53,1.03c-5.81,0-11.44-1.37-16.89-4.1s-9.82-6.62-13.09-11.64c-3.27-5.03-4.91-10.86-4.91-17.49s1.64-12.64,4.91-18.02c4.77-7.88,11.95-13.02,21.55-15.4,3.06-.76,6.11-1.15,9.17-1.15,4.19,0,9.15.7,14.9,2.11,1.74.43,3.22.87,4.42,1.33s1.95.69,2.22.69l1.38-.37h1.42c.37,0,.55.26.55.78v14.26c0,.31-.28.46-.83.46s-.87-.07-.96-.21-.18-.31-.28-.5-.19-.4-.3-.62-.21-.41-.32-.6-.18-.32-.21-.41c-4.58-9.2-11.54-13.8-20.86-13.8-8.4,0-14.97,2.67-19.71,8.02s-7.11,12.43-7.11,21.25,2.61,16.39,7.82,22.71c5.21,6.33,12.29,9.49,21.25,9.49,4.89,0,9.34-1.45,13.36-4.35s7.17-6.46,9.47-10.68c.06-.18.24-.28.55-.28h.6c.31,0,.46.18.46.55s-.09.72-.28,1.05l-6.33,13.94Z"/>
  <path class="cls-1" d="M181.63,142.49c0,.24-.12.37-.37.37h-23.42c-.24,0-.37-.12-.37-.37v-1.1c0-.24.2-.37.6-.37,4.19-.18,7.01-2.41,8.48-6.69l18.7-54.14c.03-.06.05-.14.05-.23l-.5-1.51c0-.15.06-.23.18-.23h9.17c.06.03.15.06.25.09s.19.12.25.28l19.39,54.41c.43.83.77,1.57,1.03,2.25s.56,1.28.89,1.83c.73,1.25,1.94,2.22,3.62,2.89,1.41.7,2.69,1.05,3.85,1.05.24,0,.37.14.37.41v1.05c0,.24-.12.37-.37.37h-28.05c-.24,0-.37-.12-.37-.37v-1.1c0-.24.57-.4,1.7-.46s2.06-.12,2.8-.18c4.25-.46,6.37-1.89,6.37-4.31,0-.18-.03-.4-.09-.64l-6.92-19.53c-.03-.06-.09-.2-.18-.41-.37-1.04-1.01-1.56-1.93-1.56h-16.27c-.92,0-1.64.5-2.15,1.51-.09.21-.14.34-.14.37l-6.88,20.12v.41c0,.79.41,1.51,1.24,2.15,1.86,1.44,4.37,2.15,7.52,2.15h1.19c.24,0,.37.12.37.37v1.1ZM195.2,109.21c.55,0,.83-.23.83-.69,0-.24-.06-.52-.18-.83l-6.83-18.79c-.31-.83-.53-1.24-.69-1.24s-.4.43-.73,1.28l-6.42,18.75c-.12.31-.18.63-.18.99s.23.53.69.53h13.52Z"/>
  <polygon class="cls-3" points="136.45 64.16 137.55 64.16 137.55 152.1 136.45 152.1 136.45 64.16 136.45 64.16"/>
</svg>