<?xml version="1.0" encoding="UTF-8"?>
<svg id="Layer_10" data-name="Layer 10" xmlns="http://www.w3.org/2000/svg" viewBox="0 0 274 96.67">
  <defs>
    <style>
      .cls-1 {
        fill: #2e3c40;
        stroke-width: 0px;
      }
    </style>
  </defs>
  <path class="cls-1" d="M201.37,86.98c-.94-6.38-2.77-12.5-6.14-17.99-2.22-3.62-5.46-6.16-9.95-6.85-1.71-.26-3.32-1.21-4.97-1.84-2.37-2.71-4.73-5.41-7.1-8.12-1.52-1.78-3.05-3.56-4.57-5.34,1.56-.98,3.2-.33,4.8-.23,21.08,1.41,42.05,4.49,63.25,3.95h0c2.24.78,4.42,1.79,6.71,2.3,9.99,2.22,18.57-2.02,22.46-10.75,1.36-3.06,1.32-4.45-2.71-4.39-11.07.15-21.15,2.67-29.23,10.79-9.87.42-19.61-.48-30.13-2.63,1.71-1.6,2.65-2.49,3.6-3.37,0,0,0,0,0,0,6.37-.09,12.54-.59,16.94-6.22,3.42-4.38,4.82-9.53,6.12-14.74.59-2.35-.69-2.58-2.5-1.87-4.84,1.92-9.68,3.87-14.52,5.79-4.82,1.92-7.14,5.62-7.61,10.64-.17,1.78-.32,3.56-.49,5.34h0c-4.12,3.97-9.29,4.14-14.52,3.91-7.38-.32-14.75-.76-22.12-1.15-8.06-.59-16.12-1.17-24.18-1.76,0,0,0,0,0,0-5.78-.51-11.55-1.19-17.38-.3-1.42.22-3.85,1.15-4.22-.93-.3-1.7,2.13-1.7,3.5-1.95,3.56-.64,5.86-2.81,7.43-5.86,2.41-4.67,3.45-9.83,4.97-14.81.55-1.82-.03-3.1-2.27-2.04-4.43,2.09-9.15,3.59-12.82,7.11-3.1,2.97-4.95,6.04-3.8,10.66,1.46,5.86.13,7.65-5.89,8.33-10.69,1.2-21.44.47-32.17.51-5.06.02-10.12-.37-15.17-.64-.99-.05-2.33.2-2.8-.91-.6-1.42.9-2.03,1.64-2.85,2.38-2.65,5.16-4.55,8.95-4.21,5.73.51,9.63-2.42,12.74-6.78,3.52-4.91,6.01-10.29,6.96-16.3.2-1.28.99-2.84-.25-3.76-.99-.73-2.27.18-3.37.61-5.55,2.23-10.66,5.3-15.83,8.28-4.06,2.34-6.11,5.83-6.84,10.41-1.49,9.35-6.73,14.34-16.28,15.38-12,1.3-24.02,2.37-36.03,3.57-2.22.22-4.43.54-6.63.95-.82.15-1.89.52-1.55,1.71.26.9,1.18.72,1.9.65.89-.08,1.77-.29,2.66-.36,16.93-1.33,33.85-3.21,50.81-3.76,10.33-.34,20.86.83,29.84,7.19.44,1.73.86,3.46,1.33,5.18,3.46,12.66,10.46,18.35,23.51,19.1,1.32.08,3,.56,3.82-.51.93-1.21-.34-2.52-1.02-3.59-2.95-4.63-5.83-9.32-9.06-13.75-4.31-5.9-10.17-8.93-17.65-8.25-1.61-1.2-3.12-2.59-5.24-2.83-.25-1.56.77-1.59,1.87-1.59,2.03,0,4.06-.04,6.08-.06,0,0,0,0,0,0,11.39.39,22.74.25,34-1.79,9.55-.39,19,.64,28.47,1.68,4.28.47,7.63,2.29,10.48,5.3,1.35,1.43,1.63,3.14.81,4.96-.72,1.61-1.98,2.93-3.76,2.66-7.43-1.13-10.78,3.72-13.59,9.18-1.24,2.41-4.28,5.31-2.54,7.51,1.83,2.31,5.61.58,8.46.01,5.97-1.19,12.03-6.84,12.02-11.68,0-3.1.79-5.83,1.81-8.6,2.83,1.18,4.16,3.88,6.07,5.99.32,1.44.77,2.87.93,4.33,1.55,14.24,5.98,19.51,19.58,23.44,2.19.63,2.69.04,2.39-2.03ZM236.69,50.56c-.23-.17-.46-.34-.69-.51.31.06.57.19.69.51ZM168.54,46.66c.03.06.06.11.09.17h0c-.04-.06-.07-.11-.09-.17Z"/>
</svg>